# xmcd
#
# Track frame offsets: 
#        150
#        18651
#        35153
#
# Disc length: 744 seconds
#
# Revision: 0
# Processed by: cddbd v1.5.2PL0 Copyright (c) Steve Scherf et al.
# Submitted via: ExactAudioCopy v1.0b1
#
DISCID=2202e603
DTITLE=Mount Moriah - The Letting Go
DYEAR=2010
DGENRE=Folk/Rock
TTITLE0=Reckoning (Demo) 
TTITLE1=The Letting Go
TTITLE2=Telling The Hour (Live At The Earl)
EXTD=
EXTT0=
EXTT1=
EXTT2=
PLAYORDER=
